Coordinates
version=1
nRows=18
nColumns=22
inDegrees=yes

Units are S.I. units (second, meters, Newtons, ...)
If the header above contains a line with 'inDegrees', this indicates whether rotational values are in degrees (yes) or radians (no).

endheader
time	pelvis_tilt	pelvis_list	pelvis_rotation	pelvis_tx	pelvis_ty	pelvis_tz	hip_flexion_r	hip_adduction_r	hip_rotation_r	knee_angle_r	ankle_angle_r	subtalar_angle_r	hip_flexion_l	hip_adduction_l	hip_rotation_l	knee_angle_l	ankle_angle_l	subtalar_angle_l	lumbar_extension	lumbar_bending	lumbar_rotation
      0.93000000	    -10.96512168	     -0.57844522	    -15.20645292	     -0.98156194	      0.97105552	      0.07913013	     21.95455331	      3.17750852	      1.97643276	    -27.49970618	     21.69279245	     -3.45430324	     22.87381630	     -0.87073216	     -2.59036096	    -29.47722305	     22.95147057	     -3.82234759	      2.26388550	      3.44305882	      6.97969807
      0.94000000	    -10.94703095	     -0.67906315	    -15.23204193	     -0.98009512	      0.97063852	      0.07902616	     21.87742485	      3.24734372	      1.97233808	    -27.64416376	     22.06514902	     -3.38083289	     22.89806874	     -0.93940214	     -2.54803187	    -29.78805094	     23.19323612	     -3.79299026	      2.33577890	      3.55245462	      7.04577939
      0.95000000	    -10.91982093	     -0.76642008	    -15.25950428	     -0.97852151	      0.97024883	      0.07890862	     21.79455663	      3.29912718	      1.96077590	    -27.80180105	     22.45215969	     -3.36489700	     22.88507134	     -0.98488795	     -2.49520891	    -30.05398259	     23.40276912	     -3.78198062	      2.40054304	      3.64489710	      7.11878206
      0.96000000	    -10.89337088	     -0.87720574	    -15.25662754	     -0.97680843	      0.96989533	      0.07874066	     21.66541167	      3.36379575	      1.94493589	    -27.89989451	     22.82666831	     -3.21604623	     22.85949561	     -1.04321509	     -2.42904030	    -30.31684215	     23.66577401	     -3.71931479	      2.46334463	      3.76224765	      7.15383016
      0.97000000	    -10.86684042	     -0.94045635	    -15.26373991	     -0.97497449	      0.96955293	      0.07855467	     21.55133537	      3.38082234	      1.93718786	    -28.01446016	     23.23369007	     -3.23835767	     22.80247761	     -1.04939439	     -2.37818486	    -30.51311804	     23.87773425	     -3.71161523	      2.54078019	      3.82783249	      7.21629190
      0.98000000	    -10.83458093	     -1.00892161	    -15.25452736	     -0.97301705	      0.96925001	      0.07832875	     21.40944075	      3.39403541	      1.92255568	    -28.10362483	     23.63282342	     -3.25395962	     22.71683332	     -1.05073501	     -2.31941962	    -30.68164614	     24.12199576	     -3.69095439	      2.60747938	      3.89775917	      7.25511395
      0.99000000	    -10.79926055	     -1.07897158	    -15.23401078	     -0.97095907	      0.96897655	      0.07808223	     21.25194012	      3.40305858	      1.89833612	    -28.18166655	     24.03126688	     -3.26980404	     22.60595193	     -1.04646058	     -2.25435521	    -30.82028660	     24.37457264	     -3.65642739	      2.66396817	      3.96618038	      7.28267779
      1.00000000	    -10.70517415	     -1.17164953	    -15.18246069	     -0.96877890	      0.96883575	      0.07779553	     21.00196687	      3.40367824	      1.83370819	    -28.22448354	     24.41578419	     -3.23869958	     22.40973917	     -1.03736003	     -2.16365377	    -30.93383969	     24.63937422	     -3.53576753	      2.63481854	      4.03635861	      7.28755489
      1.01000000	    -10.71115283	     -1.22177279	    -15.15663503	     -0.96660994	      0.96851237	      0.07755495	     20.88836065	      3.40549545	      1.82299111	    -28.30858722	     24.82599192	     -3.27473914	     22.31988276	     -1.02328794	     -2.10532235	    -31.03823578	     24.91075338	     -3.50986058	      2.72144495	      4.08636576	      7.30727089
      1.02000000	    -10.71331923	     -1.26888262	    -15.10563758	     -0.96436897	      0.96819425	      0.07728034	     20.76947540	      3.39178943	      1.78130336	    -28.39692953	     25.23338475	     -3.30119636	     22.21824739	     -0.99375872	     -2.02129067	    -31.13091979	     25.20101830	     -3.47087376	      2.79049997	      4.12669828	      7.29808157
      1.03000000	    -10.70460263	     -1.30670485	    -15.02627994	     -0.96205735	      0.96788682	      0.07695545	     20.64667105	      3.35277816	      1.70632095	    -28.50373655	     25.65003678	     -3.29241781	     22.09422379	     -0.93245498	     -1.88296691	    -31.20042494	     25.49596415	     -3.40677670	      2.83454025	      4.14560002	      7.27012208
      1.04000000	    -10.73125657	     -1.32025408	    -14.97086207	     -0.95971441	      0.96749292	      0.07668218	     20.57888571	      3.31741353	      1.69955762	    -28.63544319	     26.04379554	     -3.31653037	     22.00438094	     -0.86659640	     -1.77866267	    -31.26728615	     25.83126727	     -3.40107942	      2.91032095	      4.14524445	      7.26239055
      1.05000000	    -10.74058456	     -1.28637395	    -14.87462817	     -0.95730681	      0.96706883	      0.07629773	     20.54477522	      3.20371175	      1.62320359	    -28.84775513	     26.45884294	     -3.27503271	     21.89488976	     -0.71721233	     -1.60940219	    -31.30640026	     26.14694115	     -3.40495600	      2.96019316	      4.08641302	      7.18417647
      1.06000000	    -10.75816026	     -1.22129945	    -14.79231779	     -0.95485504	      0.96657561	      0.07592681	     20.55367536	      3.06895684	      1.58323328	    -29.11117208	     26.84935346	     -3.24531988	     21.79322501	     -0.53957493	     -1.45322337	    -31.34309351	     26.50488561	     -3.43672849	      3.00885796	      3.99258853	      7.12884025
      1.07000000	    -10.76838268	     -1.11013707	    -14.70874953	     -0.95236535	      0.96601438	      0.07551564	     20.61291363	      2.88247946	      1.54587555	    -29.46071372	     27.22057815	     -3.23116932	     21.68499105	     -0.30358656	     -1.28942595	    -31.36824806	     26.88428385	     -3.47909861	      3.03740899	      3.84553637	      7.07257378
      1.08000000	    -10.76773734	     -0.94997493	    -14.63401412	     -0.94984759	      0.96537607	      0.07508141	     20.72892871	      2.64125044	      1.50712932	    -29.91011964	     27.56673116	     -3.24112640	     21.56960036	     -0.00864744	     -1.12516701	    -31.38836121	     27.28753369	     -3.52046055	      3.04005454	      3.64111669	      7.02208170
      1.09000000	    -10.75732311	     -0.73978253	    -14.56791001	     -0.94732481	      0.96464628	      0.07462882	     20.91332066	      2.34458690	      1.46433335	    -30.47444633	     27.87850178	     -3.27760941	     21.45262937	      0.34468605	     -0.96586772	    -31.40645910	     27.71272853	     -3.55552242	      3.01312570	      3.37827065	      6.98635156
      1.10000000	    -10.73879455	     -0.47632144	    -14.52220611	     -0.94482045	      0.96380560	      0.07417200	     21.18174409	      1.99202761	      1.41711787	    -31.17145252	     28.15202073	     -3.34454798	     21.34054973	      0.75650960	     -0.81345720	    -31.42997997	     28.15520263	     -3.58453282	      2.95562269	      3.05567407	      6.96944143
